# File created by Blade
# Date/Time:  Mon Sep 22 15:39:46 2014
# Frame Rate: 120.000 fps
#------------------------------------------------------
:FULLY-SPECIFIED
:DEGREES
2369
root 1.939492 37.034631 3.105100 0.744823 -2.766535 2.017132
RightUpLeg 8.633305 -5.714476 -3.459480
RightLeg -5.624198 -0.000000 0.000000
RightFoot -13.184053 -14.931526 16.436997
RightToeBase 15.217625 -0.000000 -0.000000
LeftUpLeg 7.072479 2.866413 1.751168
LeftLeg -3.154890 -0.000000 0.000000
LeftFoot -9.575424 12.702226 -18.081285
LeftToeBase 8.037169 -0.000000 -0.000000
Spine 0.442886 -6.656911 -5.279973
RightShoulder -2.157036 -6.698600 -25.684123
RightArm -179.245997 116.136649 -143.717579
RightForeArm 84.061101 -0.000000 105.424394
RightHand 19.713243 -0.000000 -13.569142
RightHandThumb1 -24.326973 -0.000000 -32.862282
LeftShoulder -16.465188 34.855973 -7.123064
LeftArm 37.092338 2.384537 -65.807338
LeftForeArm 20.125935 0.000000 31.248076
LeftHand -14.677586 -0.000000 -7.194328
LeftHandThumb1 -26.253704 0.000000 33.147579
Head 4.741963 -38.793562 -0.174905
2370
root 1.943760 37.031991 3.108801 0.682891 -2.828331 2.003094
RightUpLeg 8.684016 -5.652670 -3.460751
RightLeg -5.606488 -0.000000 0.000000
RightFoot -13.210374 -14.921422 16.425775
RightToeBase 15.237934 -0.000000 -0.000000
LeftUpLeg 7.173740 2.825880 1.752278
LeftLeg -3.201002 -0.000000 0.000000
LeftFoot -9.620430 12.788540 -18.101852
LeftToeBase 8.030834 -0.000000 -0.000000
Spine 0.580940 -6.846699 -5.270966
RightShoulder -2.045698 -6.943250 -25.663116
RightArm -178.896497 116.930309 -144.391527
RightForeArm 83.604764 -0.000000 104.787877
RightHand 19.987650 0.000000 -13.584932
RightHandThumb1 -24.326973 -0.000000 -32.862282
LeftShoulder -16.616203 35.017901 -7.149319
LeftArm 37.146607 2.639771 -65.833601
LeftForeArm 20.019058 -0.000000 31.445826
LeftHand -14.795502 0.000000 -6.953924
LeftHandThumb1 -26.253704 0.000000 33.147579
Head 4.699393 -38.600666 -0.043734
2371
root 1.948576 37.029962 3.111888 0.628808 -2.905292 1.980226
RightUpLeg 8.723896 -5.590404 -3.453523
RightLeg -5.594178 -0.000000 0.000000
RightFoot -13.202728 -14.918976 16.405798
RightToeBase 15.029961 -0.000000 -0.000000
LeftUpLeg 7.261826 2.814556 1.763496
LeftLeg -3.232014 -0.000000 0.000000
LeftFoot -9.657387 12.853484 -18.098708
LeftToeBase 8.029183 -0.000000 -0.000000
Spine 0.706223 -7.061732 -5.236812
RightShoulder -1.847627 -6.982731 -25.729321
RightArm -178.800491 117.532882 -145.075324
RightForeArm 82.936773 -0.000000 104.271465
RightHand 20.121069 0.000000 -13.929863
RightHandThumb1 -24.326973 -0.000000 -32.862282
LeftShoulder -16.794477 35.165359 -7.196284
LeftArm 37.204068 2.859344 -65.891395
LeftForeArm 19.871075 0.000000 31.549197
LeftHand -14.638278 0.000000 -7.049330
LeftHandThumb1 -26.253704 0.000000 33.147579
Head 4.658202 -38.355200 0.068138
2372
root 1.953861 37.028752 3.114505 0.590321 -2.990417 1.957500
RightUpLeg 8.741879 -5.530520 -3.445845
RightLeg -5.569706 -0.000000 0.000000
RightFoot -13.211907 -14.870727 16.446452
RightToeBase 15.231055 -0.000000 -0.000000
LeftUpLeg 7.334446 2.802038 1.770152
LeftLeg -3.263887 -0.000000 0.000000
LeftFoot -9.701019 12.939595 -18.106259
LeftToeBase 8.032006 -0.000000 -0.000000
Spine 0.803969 -7.254416 -5.195906
RightShoulder -1.653433 -6.961869 -25.848251
RightArm -178.556758 117.866941 -145.406092
RightForeArm 82.506213 0.000000 103.771538
RightHand 20.295630 -0.000000 -13.996841
RightHandThumb1 -24.326973 -0.000000 -32.862282
LeftShoulder -16.945058 35.337332 -7.246106
LeftArm 37.269950 3.149340 -65.879365
LeftForeArm 19.745308 -0.000000 31.637254
LeftHand -14.674149 -0.000000 -6.831733
LeftHandThumb1 -26.253704 0.000000 33.147579
Head 4.649251 -38.143867 0.147928
2373
root 1.959416 37.028249 3.116429 0.557587 -3.085039 1.939197
RightUpLeg 8.750602 -5.460269 -3.441258
RightLeg -5.548506 -0.000000 0.000000
RightFoot -13.192974 -14.858413 16.420865
RightToeBase 15.220820 -0.000000 -0.000000
LeftUpLeg 7.398306 2.818564 1.773073
LeftLeg -3.292294 -0.000000 0.000000
LeftFoot -9.719707 13.009528 -18.096754
LeftToeBase 7.991804 -0.000000 -0.000000
Spine 0.894174 -7.451138 -5.160756
RightShoulder -1.436519 -6.844572 -26.002673
RightArm -178.278492 117.976473 -145.512145
RightForeArm 82.164467 -0.000000 103.353567
RightHand 20.352278 0.000000 -14.050248
RightHandThumb1 -24.326973 -0.000000 -32.862282
LeftShoulder -17.126063 35.485678 -7.304370
LeftArm 37.362105 3.448248 -65.874461
LeftForeArm 19.680550 -0.000000 31.644529
LeftHand -14.625674 -0.000000 -6.907407
LeftHandThumb1 -26.253704 0.000000 33.147579
Head 4.627625 -37.950378 0.248266
2374
root 1.965600 37.028513 3.118256 0.525549 -3.188872 1.930578
RightUpLeg 8.761142 -5.387268 -3.447310
RightLeg -5.537497 -0.000000 0.000000
RightFoot -13.184979 -14.848288 16.416208
RightToeBase 15.027307 -0.000000 -0.000000
LeftUpLeg 7.455233 2.844932 1.765279
LeftLeg -3.305736 -0.000000 0.000000
LeftFoot -9.748341 13.075096 -18.113643
LeftToeBase 7.994229 -0.000000 -0.000000
Spine 0.985759 -7.635087 -5.139956
RightShoulder -1.236735 -6.668119 -26.162137
RightArm -177.917196 117.883728 -145.406246
RightForeArm 81.984669 -0.000000 102.978285
RightHand 20.360664 -0.000000 -13.900910
RightHandThumb1 -24.326973 -0.000000 -32.862282
LeftShoulder -17.291965 35.626529 -7.357606
LeftArm 37.457993 3.762364 -65.849036
LeftForeArm 19.613496 0.000000 31.620036
LeftHand -14.600266 -0.000000 -6.902925
LeftHandThumb1 -26.253704 0.000000 33.147579
Head 4.611829 -37.835902 0.358716
2375
root 1.971340 37.029055 3.119567 0.503683 -3.306161 1.927130
RightUpLeg 8.756872 -5.303787 -3.455753
RightLeg -5.523282 -0.000000 0.000000
RightFoot -13.169997 -14.824265 16.416455
RightToeBase 15.212908 -0.000000 -0.000000
LeftUpLeg 7.507591 2.883592 1.750808
LeftLeg -3.331127 -0.000000 0.000000
LeftFoot -9.763807 13.152335 -18.115267
LeftToeBase 7.992382 -0.000000 -0.000000
Spine 1.060047 -7.771597 -5.117874
RightShoulder -1.062225 -6.450371 -26.344105
RightArm -177.515164 117.630494 -145.114483
RightForeArm 82.002746 -0.000000 102.660606
RightHand 20.300555 0.000000 -13.602768
RightHandThumb1 -24.326973 -0.000000 -32.862282
LeftShoulder -17.434359 35.738729 -7.413263
LeftArm 37.568396 4.098645 -65.777502
LeftForeArm 19.619670 0.000000 31.518590
LeftHand -14.560020 -0.000000 -6.967710
LeftHandThumb1 -26.253704 0.000000 33.147579
Head 4.587030 -37.772099 0.461135
2376
root 1.976684 37.029609 3.119035 0.493581 -3.432411 1.925660
RightUpLeg 8.735430 -5.237493 -3.464828
RightLeg -5.506105 -0.000000 0.000000
RightFoot -13.150809 -14.800146 16.366636
RightToeBase 15.258266 -0.000000 -0.000000
LeftUpLeg 7.532654 2.960330 1.735715
LeftLeg -3.331231 -0.000000 0.000000
LeftFoot -9.788466 13.209727 -18.111713
LeftToeBase 8.003300 -0.000000 -0.000000
Spine 1.121107 -7.820708 -5.099435
RightShoulder -0.966411 -6.277482 -26.523113
RightArm -176.990233 117.194843 -144.595303
RightForeArm 82.010908 -0.000000 102.418901
RightHand 20.135914 -0.000000 -13.403807
RightHandThumb1 -24.326973 -0.000000 -32.862282
LeftShoulder -17.517741 35.874095 -7.460574
LeftArm 37.759497 4.444987 -65.653059
LeftForeArm 19.633014 -0.000000 31.339612
LeftHand -14.548908 0.000000 -7.156290
LeftHandThumb1 -26.253704 0.000000 33.147579
Head 4.551164 -37.781238 0.605431
2377
root 1.981979 37.030804 3.118598 0.488476 -3.554093 1.938967
RightUpLeg 8.714466 -5.196585 -3.492181
RightLeg -5.502117 -0.000000 0.000000
RightFoot -13.123339 -14.756422 16.332047
RightToeBase 15.045085 -0.000000 -0.000000
LeftUpLeg 7.555164 3.011761 1.710247
LeftLeg -3.337880 -0.000000 0.000000
LeftFoot -9.794538 13.262578 -18.133787
LeftToeBase 8.013713 -0.000000 -0.000000
Spine 1.174389 -7.840477 -5.103940
RightShoulder -0.910056 -6.099558 -26.656083
RightArm -176.422562 116.657914 -143.994531
RightForeArm 82.171867 0.000000 102.200557
RightHand 20.143690 -0.000000 -12.813851
RightHandThumb1 -24.326973 -0.000000 -32.862282
LeftShoulder -17.608335 36.020546 -7.523434
LeftArm 38.009824 4.802960 -65.491928
LeftForeArm 19.745201 -0.000000 31.088283
LeftHand -14.431606 -0.000000 -7.292237
LeftHandThumb1 -26.253704 0.000000 33.147579
Head 4.513003 -37.862398 0.772364
2378
root 1.985946 37.031421 3.117883 0.492830 -3.677110 1.947083
RightUpLeg 8.688240 -5.164281 -3.510937
RightLeg -5.507908 -0.000000 0.000000
RightFoot -13.094298 -14.702858 16.315566
RightToeBase 15.077340 -0.000000 -0.000000
LeftUpLeg 7.562131 3.094194 1.691105
LeftLeg -3.334165 -0.000000 0.000000
LeftFoot -9.792477 13.287533 -18.132151
LeftToeBase 7.975365 -0.000000 -0.000000
Spine 1.213379 -7.817015 -5.105024
RightShoulder -0.914173 -5.917712 -26.749668
RightArm -175.783543 116.055384 -143.309100
RightForeArm 82.118187 -0.000000 102.080553
RightHand 19.978822 -0.000000 -12.567791
RightHandThumb1 -24.326973 -0.000000 -32.862282
LeftShoulder -17.649228 36.130726 -7.571294
LeftArm 38.236822 5.148593 -65.323066
LeftForeArm 19.822029 0.000000 30.808596
LeftHand -14.374941 -0.000000 -7.335669
LeftHandThumb1 -26.253704 0.000000 33.147579
Head 4.494482 -37.986771 0.947580
2379
root 1.988948 37.031833 3.117341 0.500122 -3.792954 1.958397
RightUpLeg 8.663464 -5.138252 -3.531408
RightLeg -5.517249 -0.000000 0.000000
RightFoot -13.054840 -14.642987 16.277040
RightToeBase 15.031919 -0.000000 -0.000000
LeftUpLeg 7.563899 3.180244 1.672143
LeftLeg -3.325806 -0.000000 0.000000
LeftFoot -9.805097 13.306992 -18.161917
LeftToeBase 7.984118 -0.000000 -0.000000
Spine 1.244197 -7.763942 -5.114230
RightShoulder -0.955709 -5.780677 -26.820255
RightArm -175.073674 115.408611 -142.530283
RightForeArm 81.844890 0.000000 102.045925
RightHand 19.867571 -0.000000 -12.529162
RightHandThumb1 -24.326973 -0.000000 -32.862282
LeftShoulder -17.649070 36.186577 -7.598622
LeftArm 38.439783 5.506929 -65.130862
LeftForeArm 19.886700 -0.000000 30.495042
LeftHand -14.225547 -0.000000 -7.570614
LeftHandThumb1 -26.253704 0.000000 33.147579
Head 4.485519 -38.170895 1.141000
